<?xml version="1.0" encoding="UTF-8" standalone="no"?>
<svg width="429px" height="514px" viewBox="0 0 429 514" version="1.1" xmlns="http://www.w3.org/2000/svg" xmlns:xlink="http://www.w3.org/1999/xlink">
    <!-- Generator: Sketch 3.7.2 (28276) - http://www.bohemiancoding.com/sketch -->
    <title>Group 5</title>
    <desc>Created with Sketch.</desc>
    <defs></defs>
    <g id="Page-1" stroke="none" stroke-width="1" fill="none" fill-rule="evenodd">
        <g id="Group-5">
            <circle id="Oval-1" fill="#F3F3F3" cx="214.5" cy="251.5" r="214.5"></circle>
            <g id="Group-4" transform="translate(174.000000, 0.000000)">
                <rect id="Rectangle-1" fill="#5B5B5B" x="0" y="0" width="72" height="514"></rect>
                <rect id="Rectangle-2" fill="#FFFFFF" x="34" y="22" width="4" height="16"></rect>
                <rect id="Rectangle-2" fill="#FFFFFF" x="34" y="62" width="4" height="16"></rect>
                <rect id="Rectangle-2" fill="#FFFFFF" x="34" y="102" width="4" height="16"></rect>
                <rect id="Rectangle-2" fill="#FFFFFF" x="34" y="142" width="4" height="16"></rect>
                <rect id="Rectangle-2" fill="#FFFFFF" x="34" y="182" width="4" height="16"></rect>
                <rect id="Rectangle-2" fill="#FFFFFF" x="34" y="302" width="4" height="16"></rect>
                <rect id="Rectangle-2" fill="#FFFFFF" x="34" y="342" width="4" height="16"></rect>
                <rect id="Rectangle-2" fill="#FFFFFF" x="34" y="382" width="4" height="16"></rect>
                <rect id="Rectangle-2" fill="#FFFFFF" x="34" y="422" width="4" height="16"></rect>
                <rect id="Rectangle-2" fill="#FFFFFF" x="34" y="462" width="4" height="16"></rect>
                <g id="Group" transform="translate(2.000000, 217.000000)" fill="#FFFFFF">
                    <rect id="Rectangle-12" x="0" y="0" width="11" height="65"></rect>
                    <rect id="Rectangle-12" x="19" y="0" width="11" height="65"></rect>
                    <rect id="Rectangle-12" x="38" y="0" width="11" height="65"></rect>
                    <rect id="Rectangle-12" x="57" y="0" width="11" height="65"></rect>
                </g>
                <rect id="Rectangle-16" fill="#FFFFFF" x="2" y="193" width="32" height="5"></rect>
                <rect id="Rectangle-16" fill="#FFFFFF" x="38" y="302" width="32" height="5"></rect>
            </g>
        </g>
    </g>
</svg>